<svg width="216" height="100" viewBox="0 0 216 100" fill="none" xmlns="http://www.w3.org/2000/svg">
<path d="M213.462 97.368C192.326 97.368 192.326 72.047 171.187 72.047C150.048 72.047 150.038 97.368 128.893 97.368C107.748 97.368 107.754 72.047 86.615 72.047C65.46 72.047 65.46 97.368 44.308 97.368C23.156 97.368 23.153 72.047 2.00098 72.047" stroke="#FEBBA2" stroke-width="3.863" stroke-linecap="round" stroke-linejoin="round"/>
<path d="M213.462 62.343C192.326 62.343 192.326 37.025 171.187 37.025C150.048 37.025 150.038 62.343 128.893 62.343C107.748 62.343 107.754 37.025 86.615 37.025C65.46 37.025 65.46 62.343 44.308 62.343C23.156 62.343 23.152 37.025 2 37.025" stroke="#FEBBA2" stroke-width="3.863" stroke-linecap="round" stroke-linejoin="round"/>
<path d="M213.462 27.321C192.326 27.321 192.326 2 171.187 2C150.048 2 150.038 27.321 128.893 27.321C107.748 27.321 107.754 2 86.615 2C65.46 2 65.46 27.321 44.308 27.321C23.156 27.321 23.153 2 2.00098 2" stroke="#FEBBA2" stroke-width="3.863" stroke-linecap="round" stroke-linejoin="round"/>
</svg>
