<svg width="33" height="33" viewBox="0 0 33 33" fill="none" xmlns="http://www.w3.org/2000/svg">
<path d="M26.778 11.262C29.8879 11.262 32.409 8.74092 32.409 5.631C32.409 2.52108 29.8879 0 26.778 0C23.6681 0 21.147 2.52108 21.147 5.631C21.147 8.74092 23.6681 11.262 26.778 11.262Z" fill="#FEBBA2"/>
<path d="M5.631 32.408C8.74092 32.408 11.262 29.8869 11.262 26.777C11.262 23.6671 8.74092 21.146 5.631 21.146C2.52108 21.146 0 23.6671 0 26.777C0 29.8869 2.52108 32.408 5.631 32.408Z" fill="#FEBBA2"/>
<path d="M26.1032 31.644C29.2131 31.644 31.7342 29.1229 31.7342 26.013C31.7342 22.9031 29.2131 20.382 26.1032 20.382C22.9933 20.382 20.4722 22.9031 20.4722 26.013C20.4722 29.1229 22.9933 31.644 26.1032 31.644Z" fill="#FEBBA2"/>
<path d="M6.77797 12.319C9.88789 12.319 12.409 9.79792 12.409 6.68801C12.409 3.57809 9.88789 1.05701 6.77797 1.05701C3.66806 1.05701 1.14697 3.57809 1.14697 6.68801C1.14697 9.79792 3.66806 12.319 6.77797 12.319Z" fill="#FEBBA2"/>
</svg>
