<svg width="118" height="112" viewBox="0 0 118 112" fill="none" xmlns="http://www.w3.org/2000/svg">
<g clip-path="url(#clip0)">
<path d="M114.423 111.711C116.015 111.711 117.305 110.421 117.305 108.829C117.305 107.237 116.015 105.947 114.423 105.947C112.831 105.947 111.541 107.237 111.541 108.829C111.541 110.421 112.831 111.711 114.423 111.711Z" fill="#FEBBA2"/>
<path d="M86.5378 111.711C88.1294 111.711 89.4198 110.421 89.4198 108.829C89.4198 107.237 88.1294 105.947 86.5378 105.947C84.9461 105.947 83.6558 107.237 83.6558 108.829C83.6558 110.421 84.9461 111.711 86.5378 111.711Z" fill="#FEBBA2"/>
<path d="M58.653 111.711C60.2447 111.711 61.535 110.421 61.535 108.829C61.535 107.237 60.2447 105.947 58.653 105.947C57.0613 105.947 55.771 107.237 55.771 108.829C55.771 110.421 57.0613 111.711 58.653 111.711Z" fill="#FEBBA2"/>
<path d="M27.886 108.825C27.886 108.255 28.055 107.698 28.3715 107.224C28.6881 106.751 29.1381 106.381 29.6645 106.163C30.1909 105.945 30.7702 105.888 31.329 105.999C31.8879 106.111 32.4013 106.385 32.8042 106.788C33.2071 107.191 33.4815 107.704 33.5927 108.263C33.7038 108.822 33.6467 109.401 33.4287 109.928C33.2106 110.454 32.8414 110.904 32.3676 111.22C31.8938 111.537 31.3368 111.706 30.767 111.706C30.3886 111.706 30.0138 111.632 29.6642 111.487C29.3145 111.343 28.9968 111.13 28.7292 110.863C28.4617 110.595 28.2495 110.277 28.1048 109.928C27.9601 109.578 27.8857 109.203 27.886 108.825Z" fill="#FEBBA2"/>
<path d="M2.882 111.711C4.47368 111.711 5.764 110.421 5.764 108.829C5.764 107.237 4.47368 105.947 2.882 105.947C1.29032 105.947 0 107.237 0 108.829C0 110.421 1.29032 111.711 2.882 111.711Z" fill="#FEBBA2"/>
<path d="M114.423 90.522C116.015 90.522 117.305 89.2317 117.305 87.64C117.305 86.0483 116.015 84.758 114.423 84.758C112.831 84.758 111.541 86.0483 111.541 87.64C111.541 89.2317 112.831 90.522 114.423 90.522Z" fill="#FEBBA2"/>
<path d="M86.5378 90.522C88.1294 90.522 89.4198 89.2317 89.4198 87.64C89.4198 86.0483 88.1294 84.758 86.5378 84.758C84.9461 84.758 83.6558 86.0483 83.6558 87.64C83.6558 89.2317 84.9461 90.522 86.5378 90.522Z" fill="#FEBBA2"/>
<path d="M58.653 90.522C60.2447 90.522 61.535 89.2317 61.535 87.64C61.535 86.0483 60.2447 84.758 58.653 84.758C57.0613 84.758 55.771 86.0483 55.771 87.64C55.771 89.2317 57.0613 90.522 58.653 90.522Z" fill="#FEBBA2"/>
<path d="M27.886 87.639C27.8866 87.0693 28.0561 86.5126 28.373 86.0392C28.6899 85.5658 29.1401 85.197 29.6666 84.9794C30.1931 84.7619 30.7722 84.7052 31.3309 84.8167C31.8896 84.9282 32.4026 85.2028 32.8052 85.6059C33.2079 86.0089 33.4819 86.5223 33.5929 87.081C33.7038 87.6398 33.6466 88.2189 33.4284 88.7452C33.2103 89.2715 32.841 89.7212 32.3673 90.0377C31.8936 90.3541 31.3367 90.523 30.767 90.523C30.3884 90.523 30.0135 90.4484 29.6638 90.3034C29.3141 90.1584 28.9963 89.946 28.7288 89.6781C28.4612 89.4103 28.249 89.0923 28.1044 88.7424C27.9598 88.3925 27.8856 88.0176 27.886 87.639Z" fill="#FEBBA2"/>
<path d="M2.882 90.522C4.47368 90.522 5.764 89.2317 5.764 87.64C5.764 86.0483 4.47368 84.758 2.882 84.758C1.29032 84.758 0 86.0483 0 87.64C0 89.2317 1.29032 90.522 2.882 90.522Z" fill="#FEBBA2"/>
<path d="M114.423 69.332C116.015 69.332 117.305 68.0417 117.305 66.45C117.305 64.8583 116.015 63.568 114.423 63.568C112.831 63.568 111.541 64.8583 111.541 66.45C111.541 68.0417 112.831 69.332 114.423 69.332Z" fill="#FEBBA2"/>
<path d="M86.5378 69.332C88.1294 69.332 89.4198 68.0417 89.4198 66.45C89.4198 64.8583 88.1294 63.568 86.5378 63.568C84.9461 63.568 83.6558 64.8583 83.6558 66.45C83.6558 68.0417 84.9461 69.332 86.5378 69.332Z" fill="#FEBBA2"/>
<path d="M58.653 69.332C60.2447 69.332 61.535 68.0417 61.535 66.45C61.535 64.8583 60.2447 63.568 58.653 63.568C57.0613 63.568 55.771 64.8583 55.771 66.45C55.771 68.0417 57.0613 69.332 58.653 69.332Z" fill="#FEBBA2"/>
<path d="M27.886 66.45C27.886 65.8802 28.055 65.3232 28.3715 64.8494C28.6881 64.3756 29.1381 64.0064 29.6645 63.7883C30.1909 63.5702 30.7702 63.5132 31.329 63.6244C31.8879 63.7355 32.4013 64.0099 32.8042 64.4128C33.2071 64.8157 33.4815 65.3291 33.5927 65.8879C33.7038 66.4468 33.6467 67.0261 33.4287 67.5525C33.2106 68.0789 32.8414 68.5289 32.3676 68.8455C31.8938 69.162 31.3368 69.331 30.767 69.331C30.3886 69.3313 30.0138 69.2569 29.6642 69.1122C29.3145 68.9675 28.9968 68.7553 28.7292 68.4878C28.4617 68.2202 28.2495 67.9025 28.1048 67.5528C27.9601 67.2032 27.8857 66.8284 27.886 66.45Z" fill="#FEBBA2"/>
<path d="M2.882 69.332C4.47368 69.332 5.764 68.0417 5.764 66.45C5.764 64.8583 4.47368 63.568 2.882 63.568C1.29032 63.568 0 64.8583 0 66.45C0 68.0417 1.29032 69.332 2.882 69.332Z" fill="#FEBBA2"/>
<path d="M114.423 48.143C116.015 48.143 117.305 46.8527 117.305 45.261C117.305 43.6693 116.015 42.379 114.423 42.379C112.831 42.379 111.541 43.6693 111.541 45.261C111.541 46.8527 112.831 48.143 114.423 48.143Z" fill="#FEBBA2"/>
<path d="M86.5378 48.143C88.1294 48.143 89.4198 46.8527 89.4198 45.261C89.4198 43.6693 88.1294 42.379 86.5378 42.379C84.9461 42.379 83.6558 43.6693 83.6558 45.261C83.6558 46.8527 84.9461 48.143 86.5378 48.143Z" fill="#FEBBA2"/>
<path d="M58.653 48.143C60.2447 48.143 61.535 46.8527 61.535 45.261C61.535 43.6693 60.2447 42.379 58.653 42.379C57.0613 42.379 55.771 43.6693 55.771 45.261C55.771 46.8527 57.0613 48.143 58.653 48.143Z" fill="#FEBBA2"/>
<path d="M27.886 45.262C27.886 44.6922 28.055 44.1352 28.3715 43.6614C28.6881 43.1876 29.1381 42.8184 29.6645 42.6003C30.1909 42.3822 30.7702 42.3252 31.329 42.4364C31.8879 42.5475 32.4013 42.8219 32.8042 43.2248C33.2071 43.6277 33.4815 44.1411 33.5927 44.6999C33.7038 45.2588 33.6467 45.8381 33.4287 46.3645C33.2106 46.8909 32.8414 47.3409 32.3676 47.6575C31.8938 47.974 31.3368 48.143 30.767 48.143C30.0029 48.143 29.2701 47.8395 28.7298 47.2992C28.1895 46.7589 27.886 46.0261 27.886 45.262Z" fill="#FEBBA2"/>
<path d="M2.882 48.143C4.47368 48.143 5.764 46.8527 5.764 45.261C5.764 43.6693 4.47368 42.379 2.882 42.379C1.29032 42.379 0 43.6693 0 45.261C0 46.8527 1.29032 48.143 2.882 48.143Z" fill="#FEBBA2"/>
<path d="M114.423 26.953C116.015 26.953 117.305 25.6627 117.305 24.071C117.305 22.4793 116.015 21.189 114.423 21.189C112.831 21.189 111.541 22.4793 111.541 24.071C111.541 25.6627 112.831 26.953 114.423 26.953Z" fill="#FEBBA2"/>
<path d="M86.5378 26.953C88.1294 26.953 89.4198 25.6627 89.4198 24.071C89.4198 22.4793 88.1294 21.189 86.5378 21.189C84.9461 21.189 83.6558 22.4793 83.6558 24.071C83.6558 25.6627 84.9461 26.953 86.5378 26.953Z" fill="#FEBBA2"/>
<path d="M58.653 26.953C60.2447 26.953 61.535 25.6627 61.535 24.071C61.535 22.4793 60.2447 21.189 58.653 21.189C57.0613 21.189 55.771 22.4793 55.771 24.071C55.771 25.6627 57.0613 26.953 58.653 26.953Z" fill="#FEBBA2"/>
<path d="M27.886 24.07C27.8866 23.5003 28.0561 22.9436 28.373 22.4702C28.6899 21.9968 29.1401 21.628 29.6666 21.4104C30.1931 21.1928 30.7722 21.1362 31.3309 21.2477C31.8896 21.3592 32.4026 21.6338 32.8052 22.0369C33.2079 22.4399 33.4819 22.9533 33.5929 23.512C33.7038 24.0708 33.6466 24.6499 33.4284 25.1762C33.2103 25.7025 32.841 26.1522 32.3673 26.4687C31.8936 26.7851 31.3367 26.954 30.767 26.954C30.3884 26.954 30.0135 26.8794 29.6638 26.7344C29.3141 26.5894 28.9963 26.3769 28.7288 26.1091C28.4612 25.8413 28.249 25.5233 28.1044 25.1734C27.9598 24.8235 27.8856 24.4486 27.886 24.07Z" fill="#FEBBA2"/>
<path d="M2.882 26.953C4.47368 26.953 5.764 25.6627 5.764 24.071C5.764 22.4793 4.47368 21.189 2.882 21.189C1.29032 21.189 0 22.4793 0 24.071C0 25.6627 1.29032 26.953 2.882 26.953Z" fill="#FEBBA2"/>
<path d="M114.423 5.764C116.015 5.764 117.305 4.47368 117.305 2.882C117.305 1.29032 116.015 0 114.423 0C112.831 0 111.541 1.29032 111.541 2.882C111.541 4.47368 112.831 5.764 114.423 5.764Z" fill="#FEBBA2"/>
<path d="M86.5378 5.764C88.1294 5.764 89.4198 4.47368 89.4198 2.882C89.4198 1.29032 88.1294 0 86.5378 0C84.9461 0 83.6558 1.29032 83.6558 2.882C83.6558 4.47368 84.9461 5.764 86.5378 5.764Z" fill="#FEBBA2"/>
<path d="M58.653 5.764C60.2447 5.764 61.535 4.47368 61.535 2.882C61.535 1.29032 60.2447 0 58.653 0C57.0613 0 55.771 1.29032 55.771 2.882C55.771 4.47368 57.0613 5.764 58.653 5.764Z" fill="#FEBBA2"/>
<path d="M27.886 2.883C27.886 2.3132 28.055 1.75618 28.3715 1.2824C28.6881 0.808625 29.1381 0.439363 29.6645 0.221307C30.1909 0.00325109 30.7702 -0.0537973 31.329 0.0573667C31.8879 0.168531 32.4013 0.442919 32.8042 0.845834C33.2071 1.24875 33.4815 1.76209 33.5927 2.32095C33.7038 2.87981 33.6467 3.45908 33.4287 3.98551C33.2106 4.51195 32.8414 4.9619 32.3676 5.27847C31.8938 5.59504 31.3368 5.764 30.767 5.764C30.3886 5.76426 30.0138 5.68993 29.6642 5.54524C29.3145 5.40055 28.9968 5.18835 28.7292 4.92077C28.4617 4.65319 28.2495 4.33548 28.1048 3.98582C27.9601 3.63616 27.8857 3.26142 27.886 2.883Z" fill="#FEBBA2"/>
<path d="M2.882 5.764C4.47368 5.764 5.764 4.47368 5.764 2.882C5.764 1.29032 4.47368 0 2.882 0C1.29032 0 0 1.29032 0 2.882C0 4.47368 1.29032 5.764 2.882 5.764Z" fill="#FEBBA2"/>
</g>
<defs>
<clipPath id="clip0">
<rect width="117.305" height="111.711" fill="white"/>
</clipPath>
</defs>
</svg>
