<svg width="43" height="43" viewBox="0 0 43 43" fill="none" xmlns="http://www.w3.org/2000/svg">
<path d="M1.71188 1.71091C2.80761 0.615514 4.29351 0.000152588 5.84286 0.000152588C7.39222 0.000152588 8.87815 0.615514 9.97388 1.71091L40.9259 32.6629C42.0213 33.7586 42.6366 35.2445 42.6366 36.7939C42.6366 38.3433 42.0213 39.8292 40.9259 40.9249C40.3836 41.4673 39.7399 41.8976 39.0313 42.1911C38.3228 42.4847 37.5633 42.6358 36.7964 42.6358C36.0294 42.6358 35.27 42.4847 34.5614 42.1911C33.8529 41.8976 33.2091 41.4673 32.6669 40.9249L1.71188 9.96989C1.16947 9.42767 0.739179 8.7839 0.445618 8.07535C0.152056 7.3668 0.000976562 6.60736 0.000976562 5.84041C0.000976562 5.07345 0.152056 4.314 0.445618 3.60545C0.739179 2.8969 1.16947 2.25313 1.71188 1.71091Z" fill="#FEBBA2"/>
<path d="M40.9247 1.71091C41.4672 2.25313 41.8974 2.8969 42.191 3.60545C42.4846 4.314 42.6357 5.07345 42.6357 5.84041C42.6357 6.60736 42.4846 7.3668 42.191 8.07535C41.8974 8.7839 41.4672 9.42767 40.9247 9.96989L9.97275 40.9249C8.87702 42.0203 7.39109 42.6357 5.84174 42.6357C4.29238 42.6357 2.80648 42.0203 1.71075 40.9249C0.615362 39.8292 0 38.3433 0 36.7939C0 35.2445 0.615362 33.7586 1.71075 32.6629L32.6657 1.71091C33.208 1.16849 33.8518 0.738218 34.5603 0.444656C35.2689 0.151095 36.0283 0 36.7953 0C37.5622 0 38.3217 0.151095 39.0302 0.444656C39.7388 0.738218 40.3825 1.16849 40.9247 1.71091Z" fill="#FEBBA2"/>
</svg>
